<mxfile host="app.diagrams.net" modified="2024-02-16T06:51:15.865Z" agent="Mozilla/5.0 (Windows NT 10.0; Win64; x64) AppleWebKit/537.36 (KHTML, like Gecko) Chrome/121.0.0.0 Safari/537.36" etag="szrk2VfAMPxPPjyy7i63" version="23.1.2" type="github">
  <diagram id="R2lEEEUBdFMjLlhIrx00" name="Page-1">
    <mxGraphModel dx="1050" dy="530" grid="1" gridSize="10" guides="1" tooltips="1" connect="1" arrows="1" fold="1" page="1" pageScale="1" pageWidth="850" pageHeight="1100" math="0" shadow="0" extFonts="Permanent Marker^https://fonts.googleapis.com/css?family=Permanent+Marker">
      <root>
        <mxCell id="0" />
        <mxCell id="1" parent="0" />
        <mxCell id="fCH38zigjFPbPy7MxBnX-7" style="edgeStyle=orthogonalEdgeStyle;rounded=0;orthogonalLoop=1;jettySize=auto;html=1;entryX=0;entryY=0.5;entryDx=0;entryDy=0;" edge="1" parent="1" source="fCH38zigjFPbPy7MxBnX-1" target="fCH38zigjFPbPy7MxBnX-3">
          <mxGeometry relative="1" as="geometry" />
        </mxCell>
        <mxCell id="fCH38zigjFPbPy7MxBnX-1" value="ZPP100101&lt;br&gt;DB Table" style="shape=process;whiteSpace=wrap;html=1;backgroundOutline=1;size=0.16666666666666666;" vertex="1" parent="1">
          <mxGeometry x="140" y="170" width="120" height="60" as="geometry" />
        </mxCell>
        <mxCell id="fCH38zigjFPbPy7MxBnX-2" value="" style="endArrow=none;dashed=1;html=1;rounded=0;" edge="1" parent="1">
          <mxGeometry width="50" height="50" relative="1" as="geometry">
            <mxPoint x="310" y="400" as="sourcePoint" />
            <mxPoint x="310" y="70" as="targetPoint" />
          </mxGeometry>
        </mxCell>
        <mxCell id="fCH38zigjFPbPy7MxBnX-8" style="edgeStyle=orthogonalEdgeStyle;rounded=0;orthogonalLoop=1;jettySize=auto;html=1;entryX=0;entryY=0.75;entryDx=0;entryDy=0;" edge="1" parent="1" source="fCH38zigjFPbPy7MxBnX-3" target="fCH38zigjFPbPy7MxBnX-4">
          <mxGeometry relative="1" as="geometry" />
        </mxCell>
        <mxCell id="fCH38zigjFPbPy7MxBnX-9" style="edgeStyle=orthogonalEdgeStyle;rounded=0;orthogonalLoop=1;jettySize=auto;html=1;entryX=0;entryY=0.5;entryDx=0;entryDy=0;" edge="1" parent="1" source="fCH38zigjFPbPy7MxBnX-3" target="fCH38zigjFPbPy7MxBnX-5">
          <mxGeometry relative="1" as="geometry" />
        </mxCell>
        <mxCell id="fCH38zigjFPbPy7MxBnX-3" value="ZPP100101&lt;br&gt;HDBVIEW" style="shape=process;whiteSpace=wrap;html=1;backgroundOutline=1;size=0.16666666666666666;" vertex="1" parent="1">
          <mxGeometry x="360" y="170" width="120" height="60" as="geometry" />
        </mxCell>
        <mxCell id="fCH38zigjFPbPy7MxBnX-4" value="ZPP100101_A&lt;br&gt;Calculation View" style="rounded=1;whiteSpace=wrap;html=1;" vertex="1" parent="1">
          <mxGeometry x="520" y="270" width="120" height="60" as="geometry" />
        </mxCell>
        <mxCell id="fCH38zigjFPbPy7MxBnX-5" value="ZPP100101_B&lt;br&gt;Calculation View" style="rounded=1;whiteSpace=wrap;html=1;" vertex="1" parent="1">
          <mxGeometry x="520" y="343" width="120" height="60" as="geometry" />
        </mxCell>
        <mxCell id="fCH38zigjFPbPy7MxBnX-10" value="D40" style="text;html=1;strokeColor=none;fillColor=none;align=center;verticalAlign=middle;whiteSpace=wrap;rounded=0;" vertex="1" parent="1">
          <mxGeometry x="170" y="90" width="60" height="30" as="geometry" />
        </mxCell>
        <mxCell id="fCH38zigjFPbPy7MxBnX-11" value="HANA Cloud" style="text;html=1;strokeColor=none;fillColor=none;align=center;verticalAlign=middle;whiteSpace=wrap;rounded=0;" vertex="1" parent="1">
          <mxGeometry x="386" y="90" width="60" height="30" as="geometry" />
        </mxCell>
      </root>
    </mxGraphModel>
  </diagram>
</mxfile>
